<svg version="1.2" xmlns="http://www.w3.org/2000/svg" viewBox="0 0 220 220" width="220" height="220">
	<title>gscan-logo-blue-rgb-svg</title>
	<style>
		.s0 { fill: #162a91 } 
	</style>
	<g id="Layer_2">
		<g id="Layer_1-2">
			<path id="Layer" class="s0" d="m48.5 52.9c-3.2 0-4.6 1.6-4.6 4.6v102.2c0 3 1.4 4.6 4.6 4.6h121.1c3.3 0 4.6-1.6 4.6-4.6v-31.4c0-2.9-1.3-4.5-4.6-4.5h-92.2q-0.6 0-1.3-0.2-0.6-0.3-1.1-0.7-0.5-0.5-0.8-1.1-0.2-0.6-0.3-1.3v-29.2q0.1-0.7 0.3-1.3 0.3-0.6 0.8-1 0.5-0.5 1.1-0.7 0.7-0.3 1.3-0.2h92.2q2.1-0.1 4.1 0.3 2 0.4 4 1.1 1.9 0.8 3.6 1.9 1.7 1.2 3.2 2.6l22.7 22.7c3 3 5.9 8.9 5.9 13.5v30.9c0 4.6-3.2 10.5-5.9 13.5l-22.7 22.7q-1.5 1.4-3.2 2.6-1.7 1.1-3.6 1.9-2 0.7-4 1.1-2 0.4-4.1 0.3h-121.1q-2 0.1-4.1-0.3-2-0.4-3.9-1.1-1.9-0.8-3.7-1.9-1.7-1.2-3.1-2.6l-22.8-22.7c-2.7-3-5.9-8.9-5.9-13.5v-104.9c0-4.6 3.2-10.6 5.9-13.5l22.8-22.8q1.4-1.4 3.1-2.5 1.8-1.2 3.7-1.9 1.9-0.8 3.9-1.2 2.1-0.3 4.1-0.3h144.4q0.6 0 1.3 0.2 0.6 0.2 1.1 0.7 0.5 0.4 0.8 1.1 0.3 0.6 0.3 1.2v32.5q0 0.7-0.3 1.3-0.3 0.6-0.8 1-0.5 0.5-1.1 0.7-0.7 0.3-1.3 0.2z"/>
			<path id="Layer" class="s0" d="m411.8 57.5c0-2.9-1.3-4.6-4.3-4.6h-121.1c-3 0-4.3 1.6-4.3 4.6v28.7c0 3 1.3 4.6 4.3 4.6h122.4c4.6 0 10.6 2.9 13.6 5.9l22.7 22.7c2.7 2.7 5.9 8.9 5.9 13.5v28.2c0 4.6-3.2 10.8-5.9 13.5l-22.7 22.7c-3 3-9 5.9-13.6 5.9h-123.8c-4.6 0-10.5-2.9-13.5-5.9l-22.7-22.7c-2.7-2.7-5.9-8.9-5.9-13.5v-18.4q-0.1-0.7 0.2-1.3 0.2-0.6 0.7-1.1 0.4-0.4 1-0.7 0.6-0.2 1.3-0.2h32.4q0.7 0 1.3 0.2 0.7 0.3 1.2 0.7 0.5 0.5 0.8 1.1 0.2 0.6 0.3 1.3v17c0 3 1.3 4.6 4.3 4.6h121.1c3 0 4.3-1.6 4.3-4.6v-28.6c0-3-1.3-4.6-4.3-4.6h-122.5c-4.6 0-10.5-3-13.5-6l-22.7-22.7c-2.7-2.7-5.9-8.9-5.9-13.5v-28.1c0-4.6 3.2-10.8 5.9-13.5l22.7-22.8c3-2.9 8.9-5.9 13.5-5.9h123.8c4.6 0 10.6 3 13.6 5.9l22.7 22.8c2.7 2.7 5.9 8.9 5.9 13.5v18.4q0 0.6-0.2 1.2-0.2 0.6-0.7 1.1-0.5 0.4-1.1 0.7-0.6 0.2-1.2 0.2h-32.5q-0.7 0-1.3-0.2-0.6-0.2-1.1-0.7-0.5-0.4-0.8-1.1-0.3-0.6-0.3-1.2z"/>
			<path id="Layer" class="s0" d="m526.9 52.9c-3.2 0-4.6 1.6-4.6 4.6v102.2c0 3 1.4 4.6 4.6 4.6h144.4q0.7 0 1.3 0.2 0.6 0.2 1.1 0.7 0.5 0.4 0.8 1.1 0.3 0.6 0.3 1.2v32.5q0 0.7-0.3 1.3-0.3 0.6-0.8 1-0.5 0.5-1.1 0.7-0.6 0.3-1.3 0.2h-144.4q-2 0.1-4.1-0.3-2-0.4-3.9-1.1-1.9-0.8-3.6-1.9-1.8-1.2-3.2-2.6l-22.7-22.7c-3-3-6-8.9-6-13.5v-104.9c0-4.6 3-10.6 6-13.5l22.7-22.8q1.4-1.4 3.2-2.5 1.7-1.2 3.6-1.9 1.9-0.8 3.9-1.2 2.1-0.3 4.1-0.3h144.4q0.7 0 1.3 0.2 0.6 0.2 1.1 0.7 0.5 0.4 0.8 1.1 0.3 0.6 0.3 1.2v32.5q0 0.7-0.3 1.3-0.3 0.6-0.8 1-0.5 0.5-1.1 0.7-0.6 0.3-1.3 0.2z"/>
			<path id="Layer" fill-rule="evenodd" class="s0" d="m739.2 200q0 0.6-0.3 1.2-0.3 0.6-0.8 1.1-0.5 0.4-1.1 0.7-0.6 0.2-1.3 0.2h-32.4c-1.9 0-3.5-1.3-3.3-3.2l11.9-143.8c0.3-4.6 3.3-10.3 6-13.5l19.7-22.8q1.3-1.3 2.8-2.4 1.5-1.2 3.2-1.9 1.7-0.8 3.6-1.2 1.8-0.4 3.7-0.4h108.9q1.9 0 3.7 0.4 1.8 0.4 3.5 1.2 1.8 0.7 3.3 1.9 1.5 1.1 2.7 2.4l19.8 22.8c2.7 3.2 5.7 8.9 5.9 13.5l11.9 143.8c0.3 1.9-1.3 3.2-3.2 3.2h-32.5q-0.6 0-1.2-0.2-0.7-0.3-1.2-0.7-0.4-0.5-0.7-1.1-0.3-0.6-0.4-1.2l-3.2-40q-0.1-0.8-0.4-1.5-0.3-0.7-0.9-1.2-0.6-0.5-1.3-0.8-0.7-0.3-1.5-0.3h-117.6q-0.7 0-1.5 0.3-0.7 0.3-1.2 0.8-0.6 0.5-0.9 1.2-0.4 0.7-0.4 1.5zm121.9-79.5q0.7 0 1.4-0.2 0.7-0.3 1.2-0.9 0.6-0.5 0.8-1.2 0.2-0.7 0.1-1.5l-4.9-58.4q0-1.1-0.4-2.1-0.5-1-1.3-1.8-0.8-0.7-1.8-1.1-1-0.4-2.1-0.4h-97.6q-1.1 0-2.2 0.4-1 0.4-1.8 1.1-0.8 0.8-1.2 1.8-0.5 1-0.5 2.1l-4.9 58.4q-0.1 0.8 0.2 1.5 0.2 0.7 0.7 1.2 0.5 0.6 1.2 0.9 0.7 0.2 1.5 0.2z"/>
			<path id="Layer" class="s0" d="m981.9 57.5v142.5q0 0.6-0.2 1.2-0.3 0.7-0.7 1.1-0.5 0.5-1.1 0.7-0.6 0.3-1.3 0.2h-32.4q-0.7 0.1-1.3-0.2-0.6-0.2-1-0.7-0.5-0.4-0.7-1.1-0.3-0.6-0.2-1.2v-143.8c0-4.6 2.9-10.6 5.9-13.5l22.7-22.8c3-2.9 8.9-5.9 13.3-5.9h44.4c4.6 0 11.1 2.7 13.8 5.9l19.2 22.8q1.1 1.4 2.1 3 1 1.6 1.7 3.3 0.8 1.7 1.3 3.5 0.5 1.8 0.8 3.7l15.2 103.5c0.5 3 2.9 4.6 5.9 4.6h37.2c3 0 4.6-1.6 4.6-4.6v-142.5q-0.1-0.6 0.2-1.2 0.2-0.6 0.7-1.1 0.4-0.4 1.1-0.7 0.6-0.2 1.2-0.2h32.5q0.6 0 1.2 0.2 0.6 0.3 1.1 0.7 0.4 0.5 0.7 1.1 0.2 0.6 0.2 1.2v143.9c0 4.6-3 10.5-5.9 13.5l-22.8 22.7c-2.9 3-8.9 5.9-13.2 5.9h-45.3c-5.7 0-10.8-2.7-13.2-5.9l-17.6-22.7c-2.4-3.3-6.8-8.7-7.6-13.5l-14.8-103.6c-0.6-2.9-3.3-4.6-4.6-4.6h-38.5c-3 0-4.6 1.7-4.6 4.6z"/>
		</g>
	</g>
</svg>